<svg id="Component_3_1" data-name="Component 3 – 1" xmlns="http://www.w3.org/2000/svg" width="80.5" height="24" viewBox="0 0 80.5 24">
  <path id="Path_1" data-name="Path 1" d="M60-116.025v11.975h3.522v-10.214h5.635v-3.17H63.522v-7.4h6.692V-128H60Z" transform="translate(-60 128.051)" fill="#31aede"/>
  <path id="Path_2" data-name="Path 2" d="M98.212-127.312a6.339,6.339,0,0,0-1.937,1.691c-.74,1.057-.775,1.374-.775,9.721,0,8.488,0,8.664.81,9.791.775,1.057,2.782,2.43,3.1,2.113a47.438,47.438,0,0,0,.423-4.86l.317-4.719-1.021-.845c-1.021-.845-1.021-.845-.916-4.614.07-3.029.211-3.733.634-3.733s.564.634.634,3.064c.035,1.726.247,3.1.423,3.1s.387-1.374.423-3.1c.07-2.43.211-3.064.634-3.064s.564.634.634,3.064c.035,1.726.247,3.1.423,3.1s.387-1.374.423-3.1c.07-2.43.211-3.064.634-3.064s.564.7.634,3.733c.106,3.768.106,3.768-.916,4.614l-1.021.845.317,4.719a34.036,34.036,0,0,0,.458,4.86c.282.282,2.395-1.162,3.135-2.148.7-.951.74-1.514.845-9.263.106-9.157-.035-9.967-2.148-11.482A7.262,7.262,0,0,0,98.212-127.312Z" transform="translate(-82.997 127.926)" fill="#31aede"/>
  <path id="Path_3" data-name="Path 3" d="M137.851-127.283c-2.36,1.55-2.641,2.5-2.747,9.544-.176,7.431.07,9.65,1.092,11.165.775,1.162,2.923,2.677,3.275,2.324a27.859,27.859,0,0,0,.458-4.719l.211-4.508-1.092-1.092c-1.761-1.8-1.831-4.262-.141-6.973.845-1.409,2.008-1.867,3.1-1.3,1.057.564,2.184,3.17,2.184,5.072a3.517,3.517,0,0,1-1.233,2.994l-1.2,1.374.211,4.614a28.268,28.268,0,0,0,.387,4.649c.775,0,2.677-1.374,3.311-2.43.775-1.233.81-1.55.81-9.615,0-7.889-.035-8.382-.74-9.333C143.8-128.129,140.281-128.939,137.851-127.283Z" transform="translate(-108.619 128.144)" fill="#31aede"/>
  <path id="Path_4" data-name="Path 4" d="M177-116.025v11.975h3.1c3.7,0,5.776-.845,6.938-2.818.634-1.092.7-1.972.81-8.417.141-7.96-.106-9.65-1.655-11.059-1.338-1.233-2.923-1.655-6.234-1.655H177Zm6.621-8.241c.775.528.775.669.775,8.241s0,7.713-.775,8.241a4.159,4.159,0,0,1-2.113.564H180.17v-17.61h1.338A4.159,4.159,0,0,1,183.621-124.267Z" transform="translate(-135.793 128.051)" fill="#31aede"/>
  <line id="Line_2" data-name="Line 2" x1="7.5" transform="translate(59 22.5)" fill="none" stroke="#31aede" stroke-width="3"/>
  <line id="Line_9" data-name="Line 9" x1="7.5" transform="translate(73 22.5)" fill="none" stroke="#31aede" stroke-width="3"/>
  <line id="Line_10" data-name="Line 10" x1="7.5" transform="translate(73 12.5)" fill="none" stroke="#31aede" stroke-width="3"/>
  <line id="Line_11" data-name="Line 11" x1="7.5" transform="translate(73 1.5)" fill="none" stroke="#31aede" stroke-width="3"/>
  <line id="Line_7" data-name="Line 7" y2="24" transform="translate(58)" fill="none" stroke="#31aede" stroke-width="3.5"/>
  <line id="Line_8" data-name="Line 8" y2="24" transform="translate(72)" fill="none" stroke="#31aede" stroke-width="3.5"/>
</svg>
